<?xml version="1.0" encoding="UTF-8"?><svg xmlns="http://www.w3.org/2000/svg" viewBox="0 0 953.46 409.05"><defs><style>.g{fill:#fff;}.h{fill:#fccc32;}</style></defs><g id="a"/><g id="b"><path class="h" d="M277.23,313.68c-8.06,13.34-25.75,18.93-41.26,18.93-37.54,0-58.64-27.3-58.64-60.19v-97.42h47.16v87.5c0,14.89,8.06,26.68,24.82,26.68,15.82,0,25.75-10.86,25.75-26.37v-87.8h47.16v126.59c0,13.96,1.24,25.13,1.55,27.61h-45.3c-.62-2.79-1.24-11.48-1.24-15.51Z"/><path class="h" d="M381.8,278.31c.62,10.55,8.07,20.79,24.2,20.79,12.1,0,18-6.51,18-13.34,0-5.58-3.73-10.24-15.2-12.72l-17.69-4.03c-32.89-7.14-45.92-25.75-45.92-47.47,0-28.23,24.82-51.19,59.26-51.19,44.68,0,60.19,27.92,61.74,45.92l-39.09,7.14c-1.24-10.24-7.76-18.93-22.03-18.93-9,0-16.76,5.27-16.76,13.34,0,6.51,5.28,10.24,12.1,11.48l20.48,4.03c31.96,6.51,47.47,25.75,47.47,48.4,0,26.37-20.17,52.12-61.43,52.12-48.4,0-63.92-31.34-65.16-48.4l40.03-7.13Z"/><path class="h" d="M546.24,174.99h30.09v41.26h-30.09v57.71c0,12.72,6.83,16.13,17.06,16.13,4.97,0,9.62-.93,12.41-1.55v39.09c-1.86,.93-9.62,4.34-24.51,4.34-31.96,0-51.5-18.93-51.5-49.64v-66.09h-27.31v-41.26h7.76c16.13,0,23.89-10.86,23.89-25.13v-19.86h42.19v44.99Z"/><path class="h" d="M623.8,91.23c15.51,0,27.93,12.41,27.93,27.61s-12.41,27.61-27.93,27.61-27.3-12.41-27.3-27.61,12.41-27.61,27.3-27.61Zm-23.27,237.96V174.99h47.16v154.2h-47.16Z"/><path class="h" d="M925.53,109.21c15.51,0,27.93,12.41,27.93,27.61s-12.41,27.61-27.93,27.61-27.3-12.41-27.3-27.61,12.41-27.61,27.3-27.61Zm-23.27,219.98V174.99h47.16v154.2h-47.16Z"/><g><path class="g" d="M879.42,120.84c-2.39-1.39-3.83-3.97-3.96-6.73l-1.77-36.73-3.15,.15,.17-3.14-136.5-7.38-2.81-.99-.29,.82h-.07v.24l-.95,2.65-3.17,1.31,.09,.22-.71,.07,5.84,56.34c.21,1.98-1.71,3.52-3.6,2.88l-38.09-12.79-1.07,3.19-3.23-.21-5.43,81.4c-.25,3.81-2.15,7.46-5.45,9.39-4.51,2.63-7.54,7.51-7.54,13.12,0,6.19,3.7,11.49,9,13.86,3.6,1.61,6.42,4.56,7.19,8.42l14.76,56.2,7.05-1.42-14.69-57.44c-1.13-6.17,2.02-4.27,4.35-2.17l44.28,44.85c1.98,2.01,2.68,4.83,2.27,7.62-.08,.54-.12,1.08-.12,1.64,0,.6,.05,1.2,.14,1.77,.39,2.5-.73,4.99-2.53,6.77l-46.59,36.99,5.05,5.13,46.14-36.55c2.04-2,4.92-2.76,7.73-2.22,.44,.08,.91,.1,1.37,.13h0c3.32-.05,5.37,2.56,6.24,3.97l.14,.24c.22,.38,.35,.65,.35,.65l-.03-.12,18.74,30.82,6.15-3.74-17.38-28.58c-2.13-3.51-3.11-7.8-1.88-11.72,.35-1.11,.54-2.29,.54-3.52,0-1.55-.29-3.02-.83-4.37-1.44-3.66-1.04-7.79,.87-11.23l27.9-50.48,49.57,.23c1.8,0,3.37,1,4.46,2.44,1.66,2.19,4.28,3.61,7.25,3.61,5.05,0,9.15-4.1,9.15-9.15s-4.1-9.15-9.15-9.15c-.01,0-.03,0-.04,0l.02-.03s-3.77,.94-9.54-3.72l-70.25-61.77c-2.82-3.41,.7-4.97,3.04-5.6l39.71-6.14v.08l31.12-2.56c4.71-.39,9.14,1.65,12.4,5.06,3.2,3.34,7.98,5.15,13.17,4.19,5.79-1.07,10.52-5.84,11.54-11.64,1.14-6.44-1.97-12.24-6.98-15.15Zm-115.55-45.03l77.17,4.17c2.03,.11,2.4,2.95,.47,3.58l-21.91,7.12c-1.74,.56-3.56,.16-5.15-.74-1.2-.68-2.58-1.08-4.06-1.08s-2.88,.4-4.08,1.09c-1.86,1.07-4.17,1.02-6.2,.3l-36.54-12.89c-.87-.31-.61-1.6,.31-1.55Zm33.86,21.24s5.57,2.01,1.47,6.36l-27.38,26.83,.04-.06c-7.34,7.43-11.39,2.36-12.9-.47l-22.44-54.25,61.21,21.6Zm-51.64,46.99c.94,.41,3.87,1.9,4.37,4.49,0,.02,.01,.04,.02,.06,.26,1.45-.24,3.24-2.29,5.39l.17-.06-2.44,2.45c-1.3,1.3-3.53,.51-3.72-1.32l-.88-8.52c-.21-1.98,1.71-3.52,3.6-2.88l1.16,.39Zm-8.29-46.68l14.44,34.91c2.06,5.32-.49,5.78-2.86,5.28l-2.78-.93c-.14-.06-.24-.11-.24-.11l.04,.04-.56-.19c-3.51-1.18-6.01-4.3-6.4-7.99l-3.18-30.63c-.09-.92,1.18-1.24,1.53-.39Zm-31.02,124.04h.03c-13.16,.26-6.8-8.39-4.72-10.86l29.48-29.57c2.21-2.22,6.01-.87,6.33,2.24l2.98,28.75c.56,5.41-3.75,10.09-9.18,9.97l-24.92-.53Zm-13.79-95.19l34.64,11.63c3.51,1.18,6.01,4.3,6.4,7.99l1.6,15.44c.32,3.12-.77,6.21-2.98,8.43l-35.19,35.3,.19-.32c-8.67,9.06-9.79,2.45-9.78-1.62l5.12-76.85Zm51.76,155.5c-9.34-9.4-33.53-33.85-43.9-44.33-5.66-7.33,1.31-8.6,4.63-8.8l29.23,.62c4.56,.1,8.33,3.57,8.8,8.11l4.45,42.88c.18,1.77-1.95,2.8-3.21,1.53Zm13.77-2.58c-.9,1.61-3.33,1.1-3.52-.73l-4.01-38.69c-.56-5.41,3.75-10.09,9.18-9.97l25.48,.54s-19.59,35.34-27.13,48.85Zm-1.36-56.65c-4.56-.1-8.33-3.57-8.8-8.11l-4.21-40.59c-.32-3.11,.77-6.21,2.98-8.43l5.02-5.03-.03,.06s.05-.06,.13-.16l.62-.62c1.14-1.06,3.54-2.7,6.72-1.63,2.23,.75,3.56,2.5,4.35,4.07l.9,2.43c.09,.34,.13,.59,.13,.59l-.02-.3,21.57,58.33-29.35-.62Zm73.36,.63l-36.4-.17-22.8-61.65c-.24-1.35-.06-2.47,1.82-1.11l60.93,53.57c3.71,3.26,1.39,9.38-3.55,9.36Zm15.52-91.67l-28.23,2.32-.02-.12-39.01,6.03,.18-.06c-.3,.07-.53,.1-.8,.16l-1.29,.2c-3.89,.4-2.51-1.9-1.11-3.51l29.71-29.11v.02l.05-.06,.23-.22c.63-.59,2.29-1.9,4.45-1.53h-.02c.07-.01,.14,0,.22,0,.54,0,1.06-.06,1.57-.16,1.65-.34,3.36-.18,4.78,.73l30.73,19.53c2.55,1.62,1.58,5.55-1.43,5.8Zm18.16-10.25c-.15,.1-.3,.2-.45,.3-2.82,1.96-6.64,1.76-9.54-.09l-32.29-20.51c-1.35-.86-1.12-2.89,.4-3.39,11.32-3.75,44.44-14.58,44.44-14.58l1.48,30.68c.15,3.08-1.45,5.92-4.04,7.58Z"/><path class="g" d="M810.97,289.97c-3.31,0-6,2.69-6,6s2.69,6,6,6,6-2.69,6-6-2.69-6-6-6Z"/><path class="g" d="M671.25,163.15c0-3.31-2.69-6-6-6s-6,2.69-6,6,2.69,6,6,6,6-2.69,6-6Z"/><path class="g" d="M795.08,57.64c2.18,0,3.94-1.76,3.94-3.94s-1.76-3.94-3.94-3.94-3.94,1.76-3.94,3.94,1.76,3.94,3.94,3.94Z"/><path class="g" d="M711.1,388.3c-5.73,0-10.38,4.65-10.38,10.38s4.65,10.38,10.38,10.38,10.38-4.65,10.38-10.38-4.65-10.38-10.38-10.38Z"/><path class="g" d="M685.12,55.64c7.66,0,13.86-6.21,13.86-13.86s-6.21-13.86-13.86-13.86-13.86,6.21-13.86,13.86,6.21,13.86,13.86,13.86Z"/><path class="g" d="M932.37,0C929.06,0,926.37,2.69,926.37,6s2.69,6,6,6,6-2.69,6-6S935.68,0,932.37,0Z"/><path class="h" d="M867.38,54.41c-10.7,1.34-19.37,10.13-20.68,20.83-.32,2.6-.2,5.11,.27,7.49,1.56,7.81-1.02,15.87-6.26,21.86l-9.95,11.38,.07-.16s-.26,.34-.63,.8l-2.04,2.33c-2.67,2.82-6.96,6.48-11.03,6.32-4.01-.36-9.17-2.23-12.1-4.48l-46.11-35.43c-4.59-3.52-7.33-8.94-7.46-14.72v-.27c-.25-10.8-8.26-20.31-19.02-21.25-12.39-1.09-22.78,8.65-22.78,20.81,0,1.77,.23,3.49,.66,5.12,1.47,5.62,.49,11.58-3.09,16.14l-11.91,15.19c-2,2.55-4.91,4.15-8.09,4.78-2.55,.5-4.82,1.55-7.21,5.33-.86,1.35-1.19,3.73-1.14,5.33,.15,5.03,3.61,9.18,8.26,10.48l-.05,.02c6.57,1.32,10.45,4.31,12.19,5.97l1.05,1.09s.07,.09,.07,.09v-.03l43.62,45.31c9.94,10.33,14.37,24.58,12.74,38.83-.15,1.3-.23,2.62-.23,3.96,0,1.93,.16,3.83,.47,5.67,1.58,9.44-2.5,18.95-9.81,25.13l-34.43,29.07,.06-.11s-.23,.23-.56,.53l-1.87,1.58c-2.24,1.74-5.79,3.95-9.57,4.14l.12,.05c-4.36,.81-7.67,4.62-7.67,9.22,0,.34,.06,.65,.1,.98l-.25,.21,.28,.13c.65,4.56,4.52,8.08,9.26,8.08,.49,0,.96-.04,1.43-.11,3.1-.47,6.27-.39,9.13,.89l35.96,19.84c2.81,1.26,1.98,5.45-1.1,5.53l-32.51,.67c-4.5,.13-9.12-.91-12.65-3.7-2.89-2.29-6.86-3.28-11.06-2.02-3.79,1.13-6.84,4.28-7.88,8.09-2.21,8.09,3.83,15.4,11.56,15.4,2.87,0,5.49-1.01,7.55-2.69,3.7-3.02,8.1-5.07,12.87-5.2l39.8-.88c5.51-.16,10.77,2.1,14.56,6.1,3.11,3.29,7.51,5.35,12.4,5.35,7.93,0,14.55-5.39,16.55-12.69l.32-1.15,.13-1.05c.11-.77,.23-1.53,.23-2.34,0-9.52-7.72-17.23-17.23-17.23-2.44,0-4.74,.52-6.83,1.44-5.17,2.29-11.01,2.56-16.17,.25l-41.55-21.85h.88c-6.26-2.82-1.98-7.9-.48-9.43l35.41-29.9c7.5-6.34,17.66-7.82,27.06-4.96,4.56,1.39,9.52,1.85,14.67,1.17,15.46-2.04,27.91-14.77,29.63-30.27,2.31-20.83-13.94-38.47-34.3-38.47-1.03,0-2.06,.04-3.07,.13-13.46,1.19-26.61-4.64-35.99-14.38l-46.23-48.01c-1.67-1.99-3.98-5.33-4.33-8.81,0-.17,.05-.33,.05-.5,0-.36-.02-.72-.05-1.07-.35-3.41,.8-6.79,2.91-9.49l10.4-13.26c3.64-4.65,9.32-7.01,15.22-6.83,.2,0,.4,0,.6,0,1.77,0,3.48-.23,5.11-.65,6.02-1.57,12.4-.68,17.34,3.11l46.56,35.77c3.43,2.63,6.23,6.21,7.16,10.43,.38,1.7,1.27,3.53,3,5.54,2.27,2.64,5.53,4.53,9.01,4.49,6.6-.08,11.92-5.46,11.92-12.08v-.08c-.01-3.41,1.82-8.3,4.06-10.86l13.38-15.3c5.52-6.3,13.64-9.21,22.02-9.08,2.36,.04,4.82-.3,7.36-1.08,8.36-2.58,14.91-9.67,16.51-18.27,3.02-16.29-10.46-30.36-26.6-28.34Z"/></g><path class="h" d="M0,245.18l46.52-8.06v20.16c0,19.54,12.4,28.53,26.67,28.53,16.13,0,25.74-11.78,25.74-28.22V116.79h49v142.04c0,40.01-30.7,73.5-74.43,73.5S0,303.48,0,259.75v-14.58Z"/></g><g id="c"/><g id="d"/><g id="e"/><g id="f"/></svg>